Coordinates
version=1
nRows=7
nColumns=63
inDegrees=yes

Units are S.I. units (second, meters, Newtons, ...)
If the header above contains a line with 'inDegrees', this indicates whether rotational values are in degrees (yes) or radians (no).

endheader
time	pelvis_tilt	pelvis_list	pelvis_rotation	pelvis_tx	pelvis_ty	pelvis_tz	hip_flexion_r	hip_adduction_r	hip_rotation_r	knee_angle_r	knee_angle_r_beta	ankle_angle_r	subtalar_angle_r	mtp_angle_r	hip_flexion_l	hip_adduction_l	hip_rotation_l	knee_angle_l	knee_angle_l_beta	ankle_angle_l	subtalar_angle_l	mtp_angle_l	L5_S1_Flex_Ext	L5_S1_Lat_Bending	L5_S1_axial_rotation	L4_L5_Flex_Ext	L4_L5_Lat_Bending	L4_L5_axial_rotation	L3_L4_Flex_Ext	L3_L4_Lat_Bending	L3_L4_axial_rotation	L2_L3_Flex_Ext	L2_L3_Lat_Bending	L2_L3_axial_rotation	L1_L2_Flex_Ext	L1_L2_Lat_Bending	L1_L2_axial_rotation	L1_T12_Flex_Ext	L1_T12_Lat_Bending	L1_T12_axial_rotation	Abs_r3	Abs_r2	Abs_r1	Abs_t1	Abs_t2	neck_flexion	neck_bending	neck_rotation	arm_flex_r	arm_add_r	arm_rot_r	elbow_flex_r	pro_sup_r	wrist_flex_r	wrist_dev_r	arm_flex_l	arm_add_l	arm_rot_l	elbow_flex_l	pro_sup_l	wrist_flex_l	wrist_dev_l
      3.25423729	     -0.51246731	     -2.62801259	     85.72058063	      0.13597733	      0.99941524	      0.41577851	     -0.88745157	      3.64165785	     12.71778891	      1.13616026	      0.01982974	     12.97540505	    -13.32054276	      0.00000000	      0.16614320	     -4.88961358	     -1.82610491	      1.98878703	      0.03471088	     23.00606616	      4.37703137	      0.00000000	      0.10302617	      0.46040200	      1.39184741	      0.19132990	      0.61233466	      1.47883787	      0.16926169	      1.11942142	      1.47883787	      0.11774861	      1.11942142	      1.21786648	      0.09567010	      0.93885175	      1.13087602	      0.05886915	      0.71316269	      1.04388556	      0.73590562	      5.20815947	      7.74103773	      0.00000000	      0.00000000	     20.62188562	     -0.76805182	      3.09879176	     11.56323892	    -10.43035099	    151.10437403	      1.15956628	      2.15305663	     -3.75101611	    -18.95448289	     20.64795519	     -9.50122789	    125.18606440	      4.36143829	      6.77476413	      5.11857446	      1.54065034
      3.27118644	     -0.58792089	     -2.60199893	     85.49055249	      0.13657097	      0.99966308	      0.41587472	     -0.90662990	      3.57238981	     12.87775654	      1.18266213	      0.02064135	     12.96421022	    -13.22732880	      0.00000000	      0.10438858	     -4.83181114	     -2.19081738	      1.95194760	      0.03406791	     23.14559439	      4.37732597	      0.00000000	      0.08138662	      0.44400044	      1.48295031	      0.15114308	      0.59052059	      1.57563471	      0.13371007	      1.07954267	      1.57563471	      0.09301676	      1.07954267	      1.29758152	      0.07557561	      0.90540570	      1.20489713	      0.04650431	      0.68775668	      1.11221273	      0.58133646	      5.02262178	      8.24772475	      0.00000000	      0.00000000	     19.86353487	     -0.52435116	      3.60151185	     11.95510785	    -10.24862485	    154.65253155	      0.98149513	      2.39455537	     -7.07413745	    -18.47121285	     21.08356999	     -9.08229919	    125.91036353	      3.23701647	      5.37333243	      1.10198218	      0.28197854
      3.28813559	     -0.70609099	     -2.68170976	     85.23441119	      0.13712893	      0.99962361	      0.41629928	     -0.77996805	      3.47407054	     13.03062242	      1.24490642	      0.02172772	     13.00184955	    -13.15658490	      0.00000000	      0.20752522	     -4.74274531	     -2.91393402	      1.97986914	      0.03455524	     23.41625194	      4.73864571	      0.00000000	      0.06327982	      0.42586638	      1.58182096	      0.11751696	      0.56640228	      1.68068477	      0.10396242	      1.03545150	      1.68068477	      0.07232251	      1.03545150	      1.38409334	      0.05876164	      0.86842671	      1.28522953	      0.03615809	      0.65966702	      1.18636572	      0.45200145	      4.81748561	      8.79761363	      0.00000000	      0.00000000	     19.34195228	     -0.55155824	      3.87743521	     12.45276299	    -10.06546239	    160.02511676	      0.76231329	      2.72121144	    -11.69451628	    -17.32483062	     21.63641847	     -8.63945905	    125.25400287	      2.37029171	      3.85756929	     -3.53160050	     -1.49994720
      3.30508475	     -0.86772066	     -2.79228982	     84.85372827	      0.13770571	      0.99953597	      0.41705495	     -0.56450239	      3.32558744	     13.31503376	      1.35646614	      0.02367480	     13.09100368	    -13.06285825	      0.00000000	      0.35963883	     -4.60677434	     -3.83548213	      2.03168249	      0.03545955	     23.63591681	      5.15825708	      0.00000000	      0.04182887	      0.40659239	      1.71016337	      0.07768040	      0.54076788	      1.81704858	      0.06872065	      0.98858874	      1.81704858	      0.04780622	      0.98858874	      1.49639295	      0.03884229	      0.82912321	      1.38950774	      0.02390102	      0.62981162	      1.28262253	      0.29877944	      4.59945446	      9.51141561	      0.00000000	      0.00000000	     18.87579762	     -0.84852484	      3.87427491	     13.00380221	     -9.92120622	    165.14688190	      0.61965976	      3.54677033	    -16.48391380	    -15.73021053	     22.44437261	     -8.20561311	    122.78605574	      2.04520382	      2.99319845	     -8.39174798	     -3.86951335
      3.32203390	     -1.11157104	     -3.01273418	     84.33992829	      0.13841653	      0.99936711	      0.41820001	     -0.15208555	      3.10526106	     13.70127825	      1.54656803	      0.02699270	     13.21286925	    -12.89652216	      0.00000000	      0.68670184	     -4.39857940	     -4.78272176	      2.18456018	      0.03812777	     23.71669758	      5.35694009	      0.00000000	      0.03322004	      0.37833575	      1.87538449	      0.06169294	      0.50318655	      1.99259602	      0.05457721	      0.91988554	      1.99259602	      0.03796719	      0.91988554	      1.64096143	      0.03084813	      0.77150226	      1.52374990	      0.01898193	      0.58604208	      1.40653837	      0.23728744	      4.27980966	     10.43032593	      0.00000000	      0.00000000	     18.51530019	     -1.26370045	      3.51360925	     13.54451621	     -9.79101653	    168.44048771	      0.53262288	      4.54294970	    -19.71563137	    -14.51297361	     23.36515587	     -7.70188953	    119.85696221	      1.71854353	      2.27857368	    -12.20297578	     -6.33012748
      3.33898305	     -1.27428932	     -3.15652406	     83.98114250	      0.13867073	      0.99956982	      0.41954984	      0.18132991	      2.94875456	     13.92568889	      1.69950058	      0.02966188	     13.11352989	    -12.81637620	      0.00000000	      0.95327403	     -4.26090622	     -5.78209288	      2.33175454	      0.04069679	     23.68748490	      5.90666810	      0.00000000	      0.01659382	      0.36842536	      1.99143038	      0.03081638	      0.49000572	      2.11589477	      0.02726199	      0.89578941	      2.11589477	      0.01896508	      0.89578941	      1.74250158	      0.01540902	      0.75129299	      1.61803718	      0.00948171	      0.57069088	      1.49357278	      0.11852800	      4.16770132	     11.07573832	      0.00000000	      0.00000000	     17.93829172	     -1.62592142	      3.70543556	     14.14351387	     -9.67511201	    170.76641902	      0.46842849	      4.81039024	    -21.27050887	    -13.37662986	     24.32966119	     -7.15190201	    116.37629734	      1.81151403	      2.17211151	    -16.31517343	     -8.28738259
      3.35593220	     -1.45479120	     -3.23838027	     83.65778993	      0.13892539	      1.00002770	      0.42083954	      0.45059692	      2.76825028	     14.16498926	      1.83102401	      0.03195740	     12.98525220	    -12.78180261	      0.00000000	      1.14934345	     -4.10742260	     -6.76210793	      2.49609384	      0.04356506	     23.52658946	      6.62129475	      0.00000000	      0.00112783	      0.35814455	      2.09965853	      0.00209449	      0.47633225	      2.23088719	      0.00185291	      0.87079265	      2.23088719	      0.00128900	      0.87079265	      1.83720121	      0.00104730	      0.73032836	      1.70597256	      0.00064444	      0.55476590	      1.57474390	      0.00805597	      4.05140276	     11.67767085	      0.00000000	      0.00000000	     17.23848982	     -1.99158843	      3.95999230	     14.62853472	     -9.51782110	    170.11440354	      0.43509655	      3.79135223	    -19.82183185	    -13.73734059	     25.19023968	     -6.57069754	    114.01257954	      1.84683308	      2.14889279	    -20.34478635	     -9.86645741
